<?xml version="1.0" encoding="UTF-8" standalone="no"?>
<!-- Created with Inkscape (http://www.inkscape.org/) -->

<svg
   version="1.1"
   id="svg1"
   width="381.33334"
   height="109.33333"
   viewBox="0 0 381.33334 109.33333"
   sodipodi:docname="logo_vector_example.svg"
   inkscape:version="1.4 (e7c3feb1, 2024-10-09)"
   inkscape:export-filename="logo_vector_example.svg"
   inkscape:export-xdpi="96"
   inkscape:export-ydpi="96"
   xmlns:inkscape="http://www.inkscape.org/namespaces/inkscape"
   xmlns:sodipodi="http://sodipodi.sourceforge.net/DTD/sodipodi-0.dtd"
   xmlns="http://www.w3.org/2000/svg"
   xmlns:svg="http://www.w3.org/2000/svg">
  <defs
     id="defs1" />
  <sodipodi:namedview
     id="namedview1"
     pagecolor="#ffffff"
     bordercolor="#000000"
     borderopacity="0.25"
     inkscape:showpageshadow="2"
     inkscape:pageopacity="0.0"
     inkscape:pagecheckerboard="0"
     inkscape:deskcolor="#d1d1d1"
     inkscape:zoom="2.4327834"
     inkscape:cx="214.36352"
     inkscape:cy="82.621412"
     inkscape:window-width="2072"
     inkscape:window-height="989"
     inkscape:window-x="2815"
     inkscape:window-y="261"
     inkscape:window-maximized="0"
     inkscape:current-layer="g1">
    <inkscape:page
       x="0"
       y="0"
       inkscape:label="1"
       id="page1"
       width="381.33334"
       height="109.33333"
       margin="0"
       bleed="0" />
  </sodipodi:namedview>
  <g
     id="g1"
     inkscape:groupmode="layer"
     inkscape:label="1">
    <path
       id="path1"
       d="m 1029.14,654.961 v -83.633 c 0,-35.508 -25.55,-52.738 -57.929,-52.738 -32.383,0 -57.891,17.23 -57.891,52.738 v 83.633 h 28.668 v -72.539 c 0,-22.582 1.102,-43.082 29.223,-43.082 28.129,0 29.259,20.5 29.259,43.082 v 72.539 h 28.67"
       style="fill:#000000;fill-opacity:1;fill-rule:nonzero;stroke:none"
       transform="matrix(0.13333333,0,0,-0.13333333,0,109.33333)" />
    <path
       id="path2"
       d="m 1082.97,603.52 0.35,-0.551 c 5.74,8.511 14.45,14.062 28.52,14.062 9.21,0 27.18,-6.84 30.5,-20.351 1.49,-5.739 1.88,-11.641 1.88,-14.809 v -60.5 h -27.77 v 55.899 c -0.2,9.96 -2.97,21.25 -16.65,21.25 -8.71,0 -16.28,-7.782 -16.64,-21.25 v -55.899 h -27.77 v 92.891 h 27.58 V 603.52"
       style="fill:#000000;fill-opacity:1;fill-rule:nonzero;stroke:none"
       transform="matrix(0.13333333,0,0,-0.13333333,0,109.33333)" />
    <path
       id="path3"
       d="m 1196.76,631.09 h -29.6133 v 23.8711 h 29.6133 z m -0.94,-16.828 v -92.891 h -27.77 v 92.891 h 27.77"
       style="fill:#000000;fill-opacity:1;fill-rule:nonzero;stroke:none"
       transform="matrix(0.13333333,0,0,-0.13333333,0,109.33333)" />
    <path
       id="path4"
       d="m 1210.08,614.262 h 29.41 l 20.71,-62.891 h 0.39 l 21.25,62.891 h 26.48 l -33.67,-92.891 h -30.35 l -34.22,92.891"
       style="fill:#000000;fill-opacity:1;fill-rule:nonzero;stroke:none"
       transform="matrix(0.13333333,0,0,-0.13333333,0,109.33333)" />
    <path
       id="path5"
       d="m 1346.95,560.43 c 0,-12.032 1.68,-23.321 15.94,-23.321 9.61,0 14.41,3.512 16.99,12.032 h 25 c -2.42,-22.969 -20.35,-30.551 -41.99,-30.551 -31.84,0 -44.61,17.969 -44.61,49.031 0,27.969 16.29,49.41 44.61,49.41 17.38,0 31.8,-5.941 39.57,-22.191 2.62,-5.192 3.91,-10.738 4.65,-16.68 0.7,-5.699 0.7,-11.64 0.7,-17.73 z m 32.23,18.48 c 0,10.192 -2.81,19.61 -16.29,19.61 -12.77,0 -15.55,-9.418 -15.94,-19.61 h 32.23"
       style="fill:#000000;fill-opacity:1;fill-rule:nonzero;stroke:none"
       transform="matrix(0.13333333,0,0,-0.13333333,0,109.33333)" />
    <path
       id="path6"
       d="m 1448.55,614.262 0.55,-16.84 h 0.35 c 5.94,14.609 17.78,18.316 31.64,17.93 v -24.614 h -12.03 c -4.61,-0.347 -10.7,-2.929 -13.47,-6.828 -2.97,-5.16 -3.52,-10.359 -3.71,-16.449 v -46.09 h -27.58 l -0.2,74.367 c 0,3.91 -0.55,11.684 -0.9,18.524 h 25.35"
       style="fill:#000000;fill-opacity:1;fill-rule:nonzero;stroke:none"
       transform="matrix(0.13333333,0,0,-0.13333333,0,109.33333)" />
    <path
       id="path7"
       d="m 1544.18,589.449 c -0.35,6.289 -6.29,9.071 -12.58,9.071 -7.58,0 -11.09,-2.192 -11.09,-8.329 0,-14.601 53.08,-6.281 53.08,-41.05 0,-20.352 -24.76,-30.551 -41.99,-30.551 -21.64,0 -40.51,8.519 -40.9,29.808 h 25.75 c 0.54,-7.226 7.03,-11.289 15.15,-11.289 7.58,0 13.32,3.121 13.32,10.352 0,7.418 -13.32,10.551 -18.87,11.84 -17.77,4.25 -34.21,8.16 -34.21,29.801 0,19.418 23.47,27.929 39.76,27.929 19.61,0 36.25,-7.031 37.58,-27.582 h -25"
       style="fill:#000000;fill-opacity:1;fill-rule:nonzero;stroke:none"
       transform="matrix(0.13333333,0,0,-0.13333333,0,109.33333)" />
    <path
       id="path8"
       d="m 1618.4,631.09 h -29.6094 v 23.8711 H 1618.4 Z m -0.94,-16.828 v -92.891 h -27.77 v 92.891 h 27.77"
       style="fill:#000000;fill-opacity:1;fill-rule:nonzero;stroke:none"
       transform="matrix(0.13333333,0,0,-0.13333333,0,109.33333)" />
    <path
       id="path9"
       d="m 1648.16,614.262 v 18.316 l 27.74,10 v -28.316 h 20.9 v -18.524 h -20.9 V 552.66 c 0,-12.23 1.87,-15.551 11.48,-15.551 2.97,0 5.94,0.352 8.87,0.551 v -16.289 c -3.12,-1.492 -17.93,-2.781 -21.84,-2.781 -21.64,0 -26.25,11.289 -26.25,31.449 v 45.699 h -18.71 v 18.524 h 18.71"
       style="fill:#000000;fill-opacity:1;fill-rule:nonzero;stroke:none"
       transform="matrix(0.13333333,0,0,-0.13333333,0,109.33333)" />
    <path
       id="path10"
       d="m 1774.88,614.262 h 27.23 l -46.64,-128.211 h -27.58 l 11.84,35.16 -35.9,93.051 h 29.61 l 20.35,-64.223 h 0.39 l 20.7,64.223"
       style="fill:#000000;fill-opacity:1;fill-rule:nonzero;stroke:none"
       transform="matrix(0.13333333,0,0,-0.13333333,0,109.33333)" />
    <path
       id="path11"
       d="m 1892.89,518.59 c -30.35,0 -48.48,20 -48.48,49.219 0,29.222 18.13,49.222 48.48,49.222 30.31,0 48.48,-20 48.48,-49.222 0,-29.219 -18.17,-49.219 -48.48,-49.219 z m 0,18.519 c 16.99,0 19.77,15.903 19.77,30.7 0,14.812 -2.78,30.711 -19.77,30.711 -17.03,0 -19.8,-15.899 -19.8,-30.711 0,-14.797 2.77,-30.7 19.8,-30.7"
       style="fill:#000000;fill-opacity:1;fill-rule:nonzero;stroke:none"
       transform="matrix(0.13333333,0,0,-0.13333333,0,109.33333)" />
    <path
       id="path12"
       d="m 2010.16,639.219 c -19.61,2.222 -19.96,-6.641 -19.22,-24.957 h 16.83 v -18.524 h -16.83 v -74.367 h -27.78 v 74.367 h -13.86 v 18.524 h 13.86 c -0.7,26.437 1.68,43.468 31.84,43.468 5,0 10.2,-0.539 15.16,-1.289 v -17.222"
       style="fill:#000000;fill-opacity:1;fill-rule:nonzero;stroke:none"
       transform="matrix(0.13333333,0,0,-0.13333333,0,109.33333)" />
    <path
       id="path13"
       d="m 2127.07,616.84 c -1.13,13.512 -8.32,20.191 -22.23,20.191 -10.54,0 -21.29,-5.59 -21.29,-17.23 0,-14.41 12.97,-16.09 24.46,-18.86 20.35,-5.203 50.31,-10.941 50.31,-37.742 0,-33.121 -28.87,-44.609 -57.54,-44.609 -30.55,0 -52.19,11.84 -51.25,45.512 h 29.22 c -1.09,-14.762 7.38,-24.762 22.38,-24.762 11.49,0 26.64,3.512 26.64,17.73 0,15.739 -19.02,16.84 -30.5,19.801 -18.72,4.649 -44.22,13.129 -44.22,36.84 0,30.508 28.12,44.019 55.5,44.019 25.9,0 46.1,-14.058 46.1,-40.89 h -27.58"
       style="fill:#000000;fill-opacity:1;fill-rule:nonzero;stroke:none"
       transform="matrix(0.13333333,0,0,-0.13333333,0,109.33333)" />
    <path
       id="path14"
       d="m 2185.31,614.262 v 18.316 l 27.78,10 v -28.316 h 20.89 v -18.524 h -20.89 V 552.66 c 0,-12.23 1.83,-15.551 11.48,-15.551 2.93,0 5.9,0.352 8.87,0.551 v -16.289 c -3.17,-1.492 -17.97,-2.781 -21.84,-2.781 -21.64,0 -26.29,11.289 -26.29,31.449 v 45.699 h -18.67 v 18.524 h 18.67"
       style="fill:#000000;fill-opacity:1;fill-rule:nonzero;stroke:none"
       transform="matrix(0.13333333,0,0,-0.13333333,0,109.33333)" />
    <path
       id="path15"
       d="m 2310.94,532.852 c -5.9,-8.512 -14.61,-14.262 -28.67,-14.262 -9.26,0 -27.19,7.031 -30.51,20.551 -1.49,5.738 -1.88,11.64 -1.88,14.8 v 60.321 h 27.74 v -55.711 c 0.19,-9.961 2.97,-21.442 16.68,-21.442 8.71,0 16.29,7.969 16.64,21.442 v 55.711 h 27.73 v -76.211 c 0.2,-5.59 0.59,-11.141 1.13,-16.68 h -27.73 l -1.13,11.481"
       style="fill:#000000;fill-opacity:1;fill-rule:nonzero;stroke:none"
       transform="matrix(0.13333333,0,0,-0.13333333,0,109.33333)" />
    <path
       id="path16"
       d="m 2370.31,614.262 v 18.316 l 27.78,10 v -28.316 h 20.89 v -18.524 h -20.89 V 552.66 c 0,-12.23 1.83,-15.551 11.48,-15.551 2.93,0 5.9,0.352 8.87,0.551 v -16.289 c -3.17,-1.492 -17.93,-2.781 -21.84,-2.781 -21.64,0 -26.29,11.289 -26.29,31.449 v 45.699 h -18.67 v 18.524 h 18.67"
       style="fill:#000000;fill-opacity:1;fill-rule:nonzero;stroke:none"
       transform="matrix(0.13333333,0,0,-0.13333333,0,109.33333)" />
    <path
       id="path17"
       d="m 2442.3,614.262 v 18.316 l 27.74,10 v -28.316 h 20.9 v -18.524 h -20.9 V 552.66 c 0,-12.23 1.84,-15.551 11.48,-15.551 2.97,0 5.9,0.352 8.87,0.551 v -16.289 c -3.12,-1.492 -17.93,-2.781 -21.84,-2.781 -21.64,0 -26.25,11.289 -26.25,31.449 v 45.699 h -18.71 v 18.524 h 18.71"
       style="fill:#000000;fill-opacity:1;fill-rule:nonzero;stroke:none"
       transform="matrix(0.13333333,0,0,-0.13333333,0,109.33333)" />
    <path
       id="path18"
       d="m 2596.95,529.691 c 0,-21.64 -4.8,-45.32 -45.5,-44.921 -20.51,0 -42.54,4.96 -43.09,29.96 h 26.25 c 0.39,-8.32 7.77,-11.492 15.35,-11.492 21.09,0 20.35,19.262 19.26,32.742 h -0.39 c -5.7,-9.07 -15.51,-12.742 -26.06,-12.742 -25.19,0 -38.12,23.672 -38.12,46.25 0,23.672 13.51,47.543 39.41,47.543 12.39,0 20.35,-4.062 24.77,-13.511 h 0.39 v 10.742 h 27.73 z m -45.66,12.028 c 15.16,0 17.93,15.551 17.93,27.582 0,13.668 -2.77,29.219 -17.93,29.219 -15.2,0 -17.97,-15.551 -17.97,-29.219 0,-12.031 2.77,-27.582 17.97,-27.582"
       style="fill:#000000;fill-opacity:1;fill-rule:nonzero;stroke:none"
       transform="matrix(0.13333333,0,0,-0.13333333,0,109.33333)" />
    <path
       id="path19"
       d="m 2620.27,587.969 c 0.2,11.679 5.2,18.902 12.58,23.121 7.58,4.461 17.38,5.941 27.38,5.941 18.68,0 39.57,-6.84 39.57,-34.761 v -50.711 c 0.24,-4.649 0.94,-7.418 1.33,-10.188 h -25 c -0.54,4.25 -0.9,8.508 -0.9,12.418 h -0.39 c -6.29,-10.738 -15.89,-15.199 -28.47,-15.199 -17.39,0 -30.35,10 -30.35,28.129 0,6.48 2.96,22.222 19.8,29.41 11.09,4.812 25.16,5.391 36.25,5 v 8.711 c 0,3.871 -2.97,11.449 -12.77,11.449 -9.61,0 -12.74,-9.059 -12.39,-13.32 z m 22.39,-37.539 c 0,-7.77 5.74,-13.321 13.51,-13.321 15.35,0 15.9,17.032 15.9,27.93 -9.61,0.191 -29.41,0.391 -29.41,-14.609"
       style="fill:#000000;fill-opacity:1;fill-rule:nonzero;stroke:none"
       transform="matrix(0.13333333,0,0,-0.13333333,0,109.33333)" />
    <path
       id="path20"
       d="m 2746.45,614.262 0.54,-16.84 h 0.39 c 5.9,14.609 17.74,18.316 31.64,17.93 v -24.614 h -12.03 c -4.65,-0.347 -10.74,-2.929 -13.51,-6.828 -2.97,-5.16 -3.52,-10.359 -3.71,-16.449 v -46.09 h -27.54 l -0.2,74.367 c 0,3.91 -0.55,11.684 -0.94,18.524 h 25.36"
       style="fill:#000000;fill-opacity:1;fill-rule:nonzero;stroke:none"
       transform="matrix(0.13333333,0,0,-0.13333333,0,109.33333)" />
    <path
       id="path21"
       d="m 2803.05,614.262 v 18.316 l 27.77,10 v -28.316 h 20.86 v -18.524 h -20.86 V 552.66 c 0,-12.23 1.84,-15.551 11.45,-15.551 2.93,0 5.89,0.352 8.86,0.551 v -16.289 c -3.12,-1.492 -17.93,-2.781 -21.83,-2.781 -21.64,0 -26.25,11.289 -26.25,31.449 v 45.699 h -18.71 v 18.524 h 18.71"
       style="fill:#000000;fill-opacity:1;fill-rule:nonzero;stroke:none"
       transform="matrix(0.13333333,0,0,-0.13333333,0,109.33333)" />
    <path
       id="path22"
       d="m 375.43,411.719 26.289,26.293 26.293,-26.293 -26.293,-26.289 z m 324.41,-229.028 26.289,26.289 -26.289,26.29 -26.289,-26.29 z m 0,404.149 26.289,26.281 -26.289,26.289 -26.289,-26.289 z m 65.82,-367.039 26.289,26.289 -26.289,26.289 -26.281,-26.289 z m 0,331.719 26.289,26.289 -26.289,26.293 -26.281,-26.293 z m -118.82,-322.891 26.289,26.293 -26.289,26.289 -26.289,-26.289 z m 0,312.269 26.289,26.293 -26.289,26.289 -26.289,-26.289 z m 61.832,-276.918 26.289,26.29 -26.289,26.289 -26.293,-26.289 z m 0,241.61 26.289,26.281 -26.289,26.289 -26.293,-26.289 z M 598.711,272.809 625,299.102 598.711,325.391 572.422,299.102 Z m 0,223.953 L 625,523.051 598.711,549.34 572.422,523.051 Z M 771.84,301.09 l 26.289,26.289 -26.289,26.293 -26.289,-26.293 z m 0,167.39 26.289,26.29 -26.289,26.281 -26.289,-26.281 z m 3.98,-83.05 26.289,26.289 -26.289,26.293 -26.289,-26.293 z m -61.84,38.871 26.29,26.289 -26.29,26.281 -26.281,-26.281 z m 0,-79.93 26.29,26.289 -26.29,26.289 -26.281,-26.289 z m -59.179,-38 26.289,26.289 -26.289,26.281 -26.281,-26.281 z m 0,156.789 26.289,26.289 -26.289,26.289 -26.281,-26.289 z m 3.09,-77.73 26.289,26.289 -26.289,26.293 -26.289,-26.293 z m -53.442,37.109 26.289,26.289 -26.289,26.293 -26.289,-26.293 z m 0,-76.41 26.289,26.293 -26.289,26.289 -26.289,-26.289 z m -50.82,-32.688 26.332,26.289 -26.332,26.29 -26.289,-26.29 z m 0,142.649 26.332,26.289 -26.332,26.293 -26.289,-26.293 z m -42.809,-37.07 26.289,26.289 -26.289,26.293 -26.289,-26.293 z m 0,-69.372 26.289,26.293 -26.289,26.289 -26.289,-26.289 z m 45.469,35.782 26.289,26.289 -26.289,26.293 L 530,411.719 Z m -85.66,0 26.281,26.289 -26.281,26.293 -26.289,-26.293 z M 102.27,182.691 75.9805,208.98 102.27,235.27 128.551,208.98 Z m 0,404.149 -26.2895,26.281 26.2895,26.289 26.281,-26.289 z M 36.4492,219.801 10.1602,246.09 36.4492,272.379 62.7305,246.09 Z m 0,331.719 -26.289,26.289 26.289,26.293 26.2813,-26.293 z M 155.27,228.629 l -26.29,26.293 26.29,26.289 26.289,-26.289 z m 0,312.269 -26.29,26.293 26.29,26.289 26.289,-26.289 z M 93.4414,263.98 67.1484,290.27 93.4414,316.559 119.73,290.27 Z m 0,241.61 -26.293,26.281 26.293,26.289 26.2886,-26.289 z m 109.9566,-232.781 -26.289,26.293 26.289,26.289 26.293,-26.289 z m 0,223.953 -26.289,26.289 26.289,26.289 26.293,-26.289 z M 30.2695,301.09 3.98047,327.379 30.2695,353.672 56.5586,327.379 Z m 0,167.39 L 3.98047,494.77 30.2695,521.051 56.5586,494.77 Z M 26.2891,385.43 0,411.719 26.2891,438.012 52.5781,411.719 Z M 88.1289,424.301 61.8398,450.59 88.1289,476.871 114.41,450.59 Z m 0,-79.93 -26.2891,26.289 26.2891,26.289 26.2811,-26.289 z m 59.1721,-38 -26.281,26.289 26.281,26.281 26.289,-26.281 z m 0,156.789 -26.281,26.289 26.281,26.289 26.289,-26.289 z m -3.082,-77.73 -26.289,26.289 26.289,26.293 26.293,-26.293 z m 53.441,37.109 -26.289,26.289 26.289,26.293 26.289,-26.293 z m 0,-76.41 -26.289,26.293 26.289,26.289 26.289,-26.289 z m 50.82,-32.688 -26.332,26.289 26.332,26.29 26.29,-26.29 z m 0,142.649 -26.332,26.289 26.332,26.293 26.29,-26.293 z m 42.809,-37.07 -26.289,26.289 26.289,26.293 26.289,-26.293 z m 0,-69.372 -26.289,26.293 26.289,26.289 26.289,-26.289 z m -45.469,35.782 -26.289,26.289 26.289,26.293 26.289,-26.293 z m 85.66,0 -26.281,26.289 26.281,26.293 26.29,-26.293 z M 94.9609,128.16 121.25,101.871 147.539,128.16 121.25,154.449 Z m 563.1291,0 26.32,-26.289 26.289,26.289 -26.289,26.289 z m -517.192,50.36 26.293,-26.29 26.289,26.29 -26.289,26.281 z m 467.731,0 26.293,-26.29 26.289,26.29 -26.289,26.281 z m -435.93,-66.25 26.281,-26.2895 26.29,26.2895 -26.29,26.281 z m 404.141,0 26.289,-26.2895 26.281,26.2895 -26.281,26.281 z m -390,110.421 26.289,-26.281 26.281,26.281 -26.281,26.289 z m 375.859,0 26.281,-26.281 26.29,26.281 -26.29,26.289 z M 209.801,46.4414 236.09,20.1602 262.379,46.4414 236.09,72.7305 Z m 331.679,0 26.29,-26.2812 26.289,26.2812 -26.289,26.2891 z M 218.629,165.27 l 26.293,-26.29 26.289,26.29 -26.289,26.289 z m 312.269,0 26.293,-26.29 26.289,26.29 -26.289,26.289 z m -301.679,101.57 26.293,-26.289 26.289,26.289 -26.289,26.281 z m 291.09,0 26.293,-26.289 26.289,26.289 -26.289,26.281 z M 253.949,103.441 280.23,77.1484 306.52,103.441 280.23,129.73 Z m 241.602,0 26.289,-26.2926 26.289,26.2926 -26.289,26.289 z m -232.742,109.957 26.293,-26.289 26.289,26.289 -26.289,26.293 z m 223.91,0 26.293,-26.289 26.289,26.289 -26.289,26.293 z m -216.879,92.774 26.332,-26.293 26.289,26.293 -26.289,26.289 z m 209.808,0 26.332,-26.293 26.29,26.293 -26.29,26.289 z M 291.051,40.2695 317.34,13.9805 343.672,40.2695 317.34,66.5586 Z m 167.429,0 26.29,-26.289 26.281,26.289 -26.281,26.2891 z M 375.43,36.2891 401.719,10 l 26.293,26.2891 -26.293,26.289 z m 38.871,61.832 26.289,-26.2813 26.289,26.2813 -26.289,26.2889 z m -79.961,0 26.289,-26.2813 26.281,26.2813 -26.281,26.2889 z m -37.969,59.1799 26.289,-26.281 26.289,26.281 -26.289,26.289 z m 156.789,0 26.289,-26.281 26.289,26.281 -26.289,26.289 z m -77.73,-3.082 26.289,-26.289 26.293,26.289 -26.293,26.293 z m 37.109,53.441 26.289,-26.289 26.293,26.289 -26.293,26.281 z m -76.41,0 26.293,-26.289 26.289,26.289 -26.289,26.281 z m -32.688,50.82 26.289,-26.332 26.29,26.332 -26.29,26.29 z m 142.649,0 26.289,-26.332 26.293,26.332 -26.293,26.29 z m -37.11,42.809 26.329,-26.289 26.293,26.289 -26.293,26.289 z m -69.332,0 26.293,-26.289 26.289,26.289 -26.289,26.289 z m 35.782,-45.469 26.289,-26.289 26.293,26.289 -26.293,26.289 z m -68.481,87.418 26.289,-26.289 26.293,26.289 -26.293,26.332 z m 135.629,0 26.293,-26.289 26.289,26.289 -26.289,26.332 z m -67.148,-1.758 26.289,-26.289 26.293,26.289 -26.293,26.29 z m 31.8,36.211 26.29,-26.281 26.281,26.281 -26.281,26.329 z m -65.82,0 26.289,-26.281 26.281,26.281 -26.281,26.329 z M 94.9609,693.941 121.25,720.23 147.539,693.941 121.25,667.66 Z m 563.1291,0 26.32,26.289 26.289,-26.289 L 684.41,667.66 Z M 140.898,643.59 167.191,669.879 193.48,643.59 167.191,617.301 Z m 467.731,0 26.293,26.289 26.289,-26.289 -26.289,-26.289 z m -435.93,66.25 26.281,26.289 26.29,-26.289 -26.29,-26.289 z m 404.141,0 26.289,26.289 26.281,-26.289 -26.281,-26.289 z m -390,-110.43 26.289,26.328 26.281,-26.328 -26.281,-26.289 z m 375.859,0 26.281,26.328 26.29,-26.328 -26.29,-26.289 z M 209.801,775.66 236.09,801.949 262.379,775.66 236.09,749.371 Z m 331.679,0 26.29,26.289 26.289,-26.289 -26.289,-26.289 z m -322.851,-118.82 26.293,26.281 26.289,-26.281 -26.289,-26.289 z m 312.269,0 26.293,26.281 26.289,-26.281 -26.289,-26.289 z m -301.679,-101.57 26.293,26.289 26.289,-26.289 -26.289,-26.329 z m 291.09,0 26.293,26.289 26.289,-26.289 -26.289,-26.329 z m -266.36,163.402 26.281,26.289 26.29,-26.289 -26.29,-26.293 z m 241.602,0 26.289,26.289 26.289,-26.289 -26.289,-26.293 z M 262.809,608.711 289.102,635 315.391,608.711 289.102,582.422 Z m 223.91,0 26.293,26.289 26.289,-26.289 -26.289,-26.289 z m -216.879,-92.77 26.332,26.289 26.289,-26.289 -26.289,-26.293 z m 209.808,0 26.332,26.289 26.29,-26.289 -26.29,-26.293 z M 291.051,781.84 317.34,808.121 343.672,781.84 317.34,755.551 Z m 167.429,0 26.29,26.281 26.281,-26.281 -26.281,-26.289 z m -83.05,3.98 26.289,26.289 26.293,-26.289 -26.293,-26.289 z m 38.871,-61.84 26.289,26.29 26.289,-26.29 -26.289,-26.289 z m -79.961,0 26.289,26.29 26.281,-26.29 -26.281,-26.289 z M 296.371,664.801 322.66,691.09 348.949,664.801 322.66,638.52 Z m 156.789,0 26.289,26.289 26.289,-26.289 -26.289,-26.281 z m -77.73,3.09 26.289,26.289 26.293,-26.289 -26.293,-26.289 z m 37.109,-53.442 26.289,26.289 26.293,-26.289 -26.293,-26.289 z m -76.41,0 26.293,26.289 26.289,-26.289 -26.289,-26.289 z m -32.688,-50.82 26.289,26.332 26.29,-26.332 -26.29,-26.289 z m 142.649,0 26.289,26.332 26.293,-26.332 -26.293,-26.289 z m -37.11,-42.809 26.329,26.289 26.293,-26.289 -26.293,-26.289 z m -69.332,0 26.293,26.289 26.289,-26.289 -26.289,-26.289 z m 35.782,45.469 26.289,26.289 26.293,-26.289 L 401.719,540 Z m -68.481,-87.461 26.289,26.332 26.293,-26.332 -26.293,-26.289 z m 135.629,0 26.293,26.332 26.289,-26.332 -26.289,-26.289 z m -67.148,1.793 26.289,26.289 26.293,-26.289 -26.293,-26.281 z m 31.8,-36.211 26.29,26.289 26.281,-26.289 -26.281,-26.289 z m -65.82,0 26.289,26.289 26.281,-26.289 -26.281,-26.289 -26.289,26.289"
       style="fill:#000000;fill-opacity:1;fill-rule:evenodd;stroke:none"
       transform="matrix(0.13333333,0,0,-0.13333333,0,109.33333)" />
    <text
       xml:space="preserve"
       style="font-style:normal;font-variant:normal;font-weight:normal;font-stretch:normal;font-size:16px;font-family:'TeX Gyre Heros';-inkscape-font-specification:'TeX Gyre Heros, Normal';font-variant-ligatures:normal;font-variant-caps:normal;font-variant-numeric:normal;font-variant-east-asian:normal;text-align:start;writing-mode:lr-tb;direction:ltr;text-anchor:start;fill:#030000;fill-opacity:1;stroke:#03405c;stroke-width:0.147402"
       x="121.39709"
       y="63.046318"
       id="text23"><tspan
         sodipodi:role="line"
         id="tspan23"
         x="121.39709"
         y="63.046318"
         style="font-style:normal;font-variant:normal;font-weight:normal;font-stretch:normal;font-size:16px;font-family:'TeX Gyre Heros';-inkscape-font-specification:'TeX Gyre Heros, Normal';font-variant-ligatures:normal;font-variant-caps:normal;font-variant-numeric:normal;font-variant-east-asian:normal;fill:#030000;fill-opacity:1">Institute of Communication Networks</tspan><tspan
         sodipodi:role="line"
         x="121.39709"
         y="86.379692"
         style="font-style:normal;font-variant:normal;font-weight:normal;font-stretch:normal;font-size:16px;font-family:'TeX Gyre Heros';-inkscape-font-specification:'TeX Gyre Heros, Normal';font-variant-ligatures:normal;font-variant-caps:normal;font-variant-numeric:normal;font-variant-east-asian:normal;fill:#030000;fill-opacity:1"
         id="tspan24" /></text>
    <text
       xml:space="preserve"
       style="font-style:normal;font-variant:normal;font-weight:normal;font-stretch:normal;font-size:16px;font-family:'TeX Gyre Heros';-inkscape-font-specification:'TeX Gyre Heros, Normal';font-variant-ligatures:normal;font-variant-caps:normal;font-variant-numeric:normal;font-variant-east-asian:normal;text-align:start;writing-mode:lr-tb;direction:ltr;text-anchor:start;fill:#030000;fill-opacity:1;stroke:#03405c;stroke-width:0.147402"
       x="121.20703"
       y="80.414062"
       id="text25"><tspan
         sodipodi:role="line"
         id="tspan25"
         x="121.20703"
         y="80.414062">Prof. Dr.-Ing. Andreas Kirsädter</tspan></text>
  </g>
</svg>
